{"title":"Death in Paradise S05E08 x264 RB58.mp4","uid":13679045,"size":673087074,"categoryP":"video","categoryS":"tv_shows","magnet":"?xt=urn:btih:68fafb05cfc3574a8d31e74c66a1cea70b1fa382&amp;dn=Death+in+Paradise+S05E08+x264+RB58.mp4&amp;tr=udp%3A%2F%2Ftracker.leechers-paradise.org%3A6969&amp;tr=udp%3A%2F%2Fzer0day.ch%3A1337&amp;tr=udp%3A%2F%2Fopen.demonii.com%3A1337&amp;tr=udp%3A%2F%2Ftracker.coppersurfer.tk%3A6969&amp;tr=udp%3A%2F%2Fexodus.desync.com%3A6969","seeders":2,"leechers":0,"uploader":"RedBaron58","files":1,"time":1456449997,"description":"Death in Paradise S05E08 x264 mp4\r\n \nhttp://www.imdb.com/title/tt1888075/\r\n\r\nTrailer:\r\n\r\n\r\nPlease be patient My intial upload speed is limited.\r\nThank you for your kind comments and feedback on my other torrents, your feedback is welcome.\r\n\r\n\r\nAbout the Episode:\r\nA student backpacker is found dead in the showers of her hostel, and with a gun in her hand \r\nand her body slumped against the only door, all evidence points toward suicide. \r\nHumphrey isn't so sure, however, especially when he notices all her toiletries laid out and \r\nher towel missing. \r\nBut when the team question the victim's boyfriend and her fellow backpackers, they find \r\nthemselves with very little to go on. \r\nMeanwhile, JP prepares for the biggest day of his life as his wedding day approaches, \r\nand when Humphrey bumps into an old lady friend, Florence encourages her boss to pursue \r\nhis quest for love. \r\n\r\nLast in the series.\r\n\r\n\r\nI hope you enjoy.\r\n\r\n\r\nTechnical:\r\n\r\nGeneral\r\nComplete name                            : G:Death in Paradise S05E08 x264 RB58.mp4\r\nFormat                                   : MPEG-4\r\nFormat profile                           : Base Media\r\nCodec ID                                 : isom\r\nFile size                                : 642 MiB\r\nDuration                                 : 58mn 59s\r\nOverall bit rate                         : 1 521 Kbps\r\nWriting application                      : Lavf54.63.104\r\n\r\nVideo\r\nID                                       : 1\r\nFormat                                   : AVC\r\nFormat/Info                              : Advanced Video Codec\r\nFormat profile                           :   \r\nFormat settings, CABAC                   : Yes\r\nFormat settings, ReFrames                : 4 frames\r\nCodec ID                                 : avc1\r\nCodec ID/Info                            : Advanced Video Coding\r\nDuration                                 : 58mn 59s\r\nBit rate                                 : 1 400 Kbps\r\nWidth                                    : 832 pixels\r\nHeight                                   : 468 pixels\r\nDisplay aspect ratio                     : 16:9\r\nFrame rate mode                          : Constant\r\nFrame rate                               : 25.000 fps\r\nColor space                              : YUV\r\nChroma subsampling                       : 4:2:0\r\nBit depth                                : 8 bits\r\nScan type                                : Progressive\r\nBits/(Pixel*Frame)                       : 0.144\r\nStream size                              : 591 MiB (92%)\r\nWriting library                          : x264 core 123 r2189 35cf912\r\nEncoding settings                        : cabac=1 / ref=3 / deblock=1:0:0\r\n\r\nAudio\r\nID                                       : 2\r\nFormat                                   : AAC\r\nFormat/Info                              : Advanced Audio Codec\r\nFormat profile                           : LC\r\nCodec ID                                 : 40\r\nDuration                                 : 58mn 59s\r\nBit rate mode                            : Constant\r\nBit rate                                 : 112 Kbps\r\nChannel(s)                               : 2 channels\r\nChannel positions                        : Front: L R\r\nSampling rate                            : 48.0 KHz\r\nCompression mode                         : Lossy\r\nStream size                              : 47.4 MiB (7%)","torrent":{"xt":"urn:btih:68fafb05cfc3574a8d31e74c66a1cea70b1fa382","amp;dn":"Death+in+Paradise+S05E08+x264+RB58.mp4","amp;tr":["udp%3A%2F%2Ftracker.leechers-paradise.org%3A6969","udp%3A%2F%2Fzer0day.ch%3A1337","udp%3A%2F%2Fopen.demonii.com%3A1337","udp%3A%2F%2Ftracker.coppersurfer.tk%3A6969","udp%3A%2F%2Fexodus.desync.com%3A6969"],"infoHash":"68fafb05cfc3574a8d31e74c66a1cea70b1fa382","infoHashBuffer":{"type":"Buffer","data":[104,250,251,5,207,195,87,74,141,49,231,76,102,161,206,167,11,31,163,130]},"announce":[],"urlList":[]}}